<svg width="246" height="36" viewBox="0 0 246 36" fill="none" xmlns="http://www.w3.org/2000/svg">
<path d="M21.3163 31.9437H20.7534C20.7534 31.9377 20.7506 31.9318 20.7495 31.9261L20.7341 31.8573C20.7242 31.812 20.7135 31.7671 20.7025 31.7226C20.6978 31.7016 20.6926 31.6806 20.6875 31.6597C20.6729 31.6009 20.6575 31.5422 20.6417 31.4834L20.637 31.4666C20.6196 31.4029 20.6014 31.3396 20.5825 31.2765L20.5635 31.2155C20.5505 31.172 20.5367 31.129 20.5241 31.086C20.5166 31.0624 20.5087 31.0392 20.5012 31.016C20.4874 30.9744 20.4731 30.9329 20.4585 30.8917C20.451 30.87 20.4431 30.8479 20.4356 30.8266C20.4172 30.775 20.3983 30.7237 20.3788 30.6728C20.3745 30.6619 20.3709 30.6515 20.3666 30.6406C20.3437 30.5807 20.3196 30.5212 20.2951 30.4617C20.2864 30.44 20.2773 30.4187 20.2683 30.3974C20.2517 30.3599 20.2351 30.3188 20.2181 30.2798L20.1862 30.2076C20.1696 30.1702 20.1526 30.1328 20.1352 30.0953C20.1246 30.0721 20.1135 30.0486 20.1025 30.0254C20.0823 29.9823 20.063 29.9397 20.0405 29.8974C20.0322 29.8813 20.0247 29.8648 20.0164 29.8483C19.9884 29.7926 19.9596 29.7361 19.9304 29.6822L19.8909 29.6122L19.8352 29.5108L19.7918 29.4359C19.7736 29.4045 19.7555 29.373 19.7369 29.3416C19.7223 29.3162 19.7073 29.2907 19.6923 29.2668C19.6718 29.2327 19.6529 29.1994 19.6304 29.1657L19.5735 29.0744C19.5467 29.0325 19.5198 28.9902 19.4922 28.9487C19.4748 28.9225 19.4575 28.8966 19.4397 28.8708C19.4219 28.845 19.4026 28.8154 19.3836 28.7881C19.3647 28.7608 19.3442 28.7335 19.3268 28.7065C19.3094 28.6796 19.2905 28.6553 19.2719 28.6317C19.2534 28.6081 19.2324 28.5767 19.2123 28.5493L19.1567 28.4745C19.1172 28.4247 19.0809 28.3749 19.0422 28.3248L18.9881 28.2563C18.9652 28.2275 18.9415 28.199 18.9182 28.1706L18.8661 28.1077C18.842 28.0789 18.8176 28.0505 18.7931 28.0217L18.7418 27.9625L18.6652 27.8757L18.6198 27.8256C18.5254 27.7219 18.4287 27.6197 18.3297 27.5202L18.2862 27.4764L18.1954 27.3877L18.1508 27.345C18.1192 27.3147 18.0877 27.2848 18.0557 27.2552L18.0229 27.2253C17.9112 27.1224 17.7963 27.0221 17.6795 26.9259L17.6475 26.8993C17.6115 26.8694 17.5752 26.8398 17.5386 26.8106L17.5023 26.7814C17.4628 26.7515 17.4269 26.7219 17.3886 26.6923L17.3692 26.6777C17.2401 26.5789 17.1079 26.4828 16.9745 26.3903L16.9559 26.3772C16.9137 26.3484 16.8714 26.32 16.8288 26.2919L16.8008 26.2736C16.7574 26.2447 16.7135 26.2167 16.6697 26.1886L16.6622 26.1841C16.517 26.0921 16.3689 26.0039 16.2181 25.9195L16.2122 25.9158C16.1645 25.8892 16.1167 25.8634 16.0689 25.8376L16.048 25.8263C15.7938 25.6904 15.5327 25.5656 15.2648 25.4521L15.2482 25.445C15.1776 25.415 15.1065 25.3862 15.0347 25.3578H16.4475C16.6776 25.3578 16.8643 25.1067 16.8643 24.7964C16.8643 24.4862 16.6776 24.2351 16.4475 24.2351H16.0267C16.0527 24.1722 16.0816 24.1011 16.1127 24.021C16.5106 23.786 17.2109 23.2852 17.9057 22.3653L17.9112 22.3582C17.9639 22.2894 18.0156 22.2181 18.0664 22.1445L18.0766 22.1299C18.1271 22.0577 18.1777 21.9832 18.2274 21.9054L18.2408 21.8848C18.2645 21.8474 18.2882 21.81 18.3119 21.7725C18.3119 21.7725 18.3119 21.7695 18.3147 21.7677C18.3391 21.7302 18.3632 21.6891 18.3873 21.649L18.4027 21.6232C18.4232 21.5888 18.4441 21.5536 18.4643 21.5181C18.4682 21.5117 18.4722 21.5053 18.4757 21.4986C18.499 21.4582 18.5223 21.417 18.5452 21.3755L18.561 21.3466C18.5799 21.3122 18.5985 21.2774 18.617 21.2422C18.6226 21.2325 18.6281 21.2224 18.6332 21.2123C18.6553 21.17 18.6774 21.1273 18.6995 21.0839L18.7149 21.0536C18.7323 21.0184 18.7501 20.9825 18.7674 20.9466L18.7864 20.9092C18.8077 20.865 18.8286 20.8201 18.8495 20.7748L18.8626 20.746C18.8799 20.7086 18.8969 20.6711 18.9139 20.6337L18.934 20.5888C18.9537 20.5435 18.9735 20.4979 18.9924 20.4518C18.996 20.4436 18.9995 20.435 19.0027 20.4268C19.0205 20.3845 19.0378 20.3414 19.0552 20.298L19.0749 20.2486C19.0911 20.2074 19.1073 20.1659 19.1231 20.1244L19.1349 20.0929C19.1535 20.0435 19.1716 19.993 19.1898 19.9432L19.2088 19.8901C19.223 19.8504 19.2368 19.81 19.2506 19.7696C19.2557 19.7546 19.2609 19.7396 19.2656 19.7247C19.283 19.673 19.3003 19.6203 19.3173 19.5675C19.3228 19.5492 19.3288 19.5301 19.3343 19.5128L19.3738 19.3897C19.3789 19.3718 19.3844 19.3523 19.3896 19.3362C19.4057 19.2819 19.4219 19.2266 19.4373 19.1708C19.4424 19.1532 19.4472 19.1352 19.4519 19.1173C19.4638 19.0742 19.4756 19.0312 19.4871 18.9874C19.4922 18.9676 19.4973 18.9477 19.5028 18.9279C19.5175 18.8703 19.5321 18.8123 19.5463 18.7535L19.5581 18.7045C19.5692 18.6577 19.5802 18.6105 19.5909 18.563L19.6051 18.4994C19.6185 18.4384 19.6319 18.3774 19.6446 18.3153C19.6473 18.3033 19.6497 18.2909 19.6521 18.2778C19.6631 18.2243 19.6738 18.1701 19.684 18.1158C19.6884 18.0937 19.6923 18.0716 19.6967 18.0496C19.7069 17.9938 19.7168 17.9373 19.7267 17.8815C19.7286 17.8695 19.731 17.8579 19.733 17.8463C19.744 17.7805 19.7548 17.7141 19.7654 17.6472C19.7689 17.6248 19.7725 17.6023 19.7756 17.5795C19.7839 17.5252 19.7918 17.4706 19.7997 17.4152L19.8068 17.3643C19.8163 17.2955 19.8254 17.2262 19.834 17.1559C19.8368 17.1338 19.8392 17.1117 19.8419 17.0892C19.8488 17.0334 19.8551 16.9772 19.8609 16.9208C19.8633 16.9006 19.8656 16.8808 19.8676 16.8606C19.8752 16.7882 19.8823 16.7153 19.8889 16.6417C19.8889 16.6211 19.8925 16.6005 19.894 16.5795C19.8992 16.5204 19.9043 16.4609 19.9086 16.401C19.9086 16.3789 19.9122 16.3569 19.9138 16.3348C19.9193 16.2584 19.9244 16.1816 19.9292 16.1042C19.9292 16.0867 19.9292 16.0668 19.9319 16.0511C19.9355 15.9867 19.939 15.922 19.9418 15.8569C19.9418 15.8333 19.9418 15.8097 19.945 15.7861C19.9481 15.7057 19.9513 15.6248 19.9537 15.5429C19.9537 15.5316 19.9537 15.52 19.9537 15.5084C19.9558 15.4356 19.9573 15.362 19.9584 15.2876C19.9584 15.2633 19.9584 15.239 19.9584 15.2147C19.9584 15.1348 19.9584 15.0545 19.9584 14.9737V14.9549C19.9584 14.8689 19.9584 14.7817 19.9584 14.693V14.6181C19.9584 14.5433 19.9552 14.4647 19.9533 14.3868V14.3445C19.9505 14.2547 19.9469 14.1638 19.9434 14.0725C19.9434 14.0489 19.941 14.0249 19.9402 14.0014C19.9368 13.9245 19.9329 13.8472 19.9284 13.7693C19.9284 13.7502 19.9284 13.7319 19.9252 13.7113C19.9197 13.6178 19.9136 13.5235 19.9071 13.4284L19.9023 13.3622C19.8964 13.2828 19.8905 13.2031 19.8838 13.1226C19.8838 13.0994 19.8802 13.0762 19.8783 13.053C19.87 12.9557 19.8609 12.8573 19.8514 12.7585C19.8514 12.7398 19.8475 12.7211 19.8459 12.702C19.8376 12.6178 19.8285 12.5328 19.8194 12.4471C19.8167 12.4213 19.8139 12.3959 19.8108 12.37C19.7997 12.2682 19.7879 12.1661 19.7752 12.0624C19.7752 12.0497 19.7717 12.037 19.7701 12.025C19.7588 11.9322 19.7468 11.8389 19.7342 11.7451C19.7302 11.7174 19.7267 11.6897 19.7227 11.662C19.708 11.5557 19.6929 11.4485 19.6773 11.3405C18.0983 0.684277 6.90876 2.41366 6.90876 2.41366L7.26719 4.70328L0.5 11.4808L0.795667 14.0979L3.35917 15.5949C3.47345 15.3195 3.62017 15.0573 3.79655 14.8131C5.45055 13.0044 8.65947 11.5845 9.57805 11.29C9.76201 11.2312 9.86662 11.2016 9.86662 11.2016C5.47266 16.593 5.97241 22.7695 6.16821 24.2418C5.96452 24.2792 5.80701 24.5124 5.80701 24.7968C5.80701 25.1067 5.99373 25.3582 6.22387 25.3582H7.63668C5.28699 26.2906 3.42185 28.0665 2.44848 30.2982C2.44734 30.3012 2.44602 30.3042 2.44454 30.3072C2.37269 30.4728 2.30585 30.6409 2.24401 30.8113C2.24411 30.813 2.24411 30.8148 2.24401 30.8165C2.22743 30.8629 2.21124 30.9093 2.19545 30.9561C2.18953 30.9729 2.18361 30.9898 2.17808 31.007C2.16387 31.0489 2.15071 31.0912 2.13861 31.1339C2.1315 31.1556 2.12479 31.1777 2.11808 31.1994C2.10545 31.2394 2.09321 31.2798 2.08137 31.3202L2.06005 31.3951C2.049 31.4325 2.03795 31.4726 2.02768 31.5115C2.02018 31.5392 2.01308 31.5665 2.00597 31.5942C1.9965 31.6316 1.98663 31.669 1.97755 31.7065C1.96847 31.7439 1.95978 31.7813 1.9511 31.821C1.94241 31.8606 1.93136 31.9071 1.92189 31.9505H1.35858C1.25026 31.9482 1.14255 31.9665 1.04178 32.0042C0.941006 32.0419 0.8492 32.0984 0.771747 32.1702C0.694294 32.242 0.63275 32.3278 0.590736 32.4225C0.548723 32.5172 0.527081 32.6189 0.527081 32.7216C0.527081 32.8243 0.548723 32.926 0.590736 33.0207C0.63275 33.1154 0.694294 33.2011 0.771747 33.273C0.8492 33.3448 0.941006 33.4012 1.04178 33.439C1.14255 33.4767 1.25026 33.495 1.35858 33.4927H21.3234C21.4318 33.495 21.5395 33.4767 21.6402 33.439C21.741 33.4012 21.8328 33.3448 21.9103 33.273C21.9877 33.2011 22.0493 33.1154 22.0913 33.0207C22.1333 32.926 22.1549 32.8243 22.1549 32.7216C22.1549 32.6189 22.1333 32.5172 22.0913 32.4225C22.0493 32.3278 21.9877 32.242 21.9103 32.1702C21.8328 32.0984 21.741 32.0419 21.6402 32.0042C21.5395 31.9665 21.4318 31.9482 21.3234 31.9505L21.3163 31.9437Z" fill="#595653"/>
<path d="M44.7035 31.9437H44.1406C44.1406 31.9377 44.1379 31.9318 44.1367 31.9261L44.1213 31.8573C44.1114 31.812 44.1007 31.7671 44.0897 31.7226C44.085 31.7016 44.0798 31.6806 44.0747 31.6597C44.0601 31.6009 44.0447 31.5422 44.0289 31.4834L44.0242 31.4666C44.0068 31.4029 43.9886 31.3396 43.9697 31.2765L43.9507 31.2155C43.9377 31.172 43.9239 31.129 43.9113 31.086C43.9038 31.0624 43.8959 31.0392 43.8884 31.016C43.8746 30.9744 43.8603 30.9329 43.8457 30.8917C43.8382 30.87 43.8303 30.8479 43.8228 30.8266C43.8044 30.775 43.7855 30.7237 43.766 30.6728C43.7617 30.6619 43.7581 30.6515 43.7538 30.6406C43.7309 30.5807 43.7068 30.5212 43.6823 30.4617C43.6736 30.44 43.6646 30.4187 43.6555 30.3974C43.6389 30.3599 43.6223 30.3188 43.6053 30.2798L43.5734 30.2076C43.5568 30.1702 43.5398 30.1328 43.5224 30.0953C43.5118 30.0721 43.5007 30.0486 43.4897 30.0254C43.4695 29.9823 43.4502 29.9397 43.4277 29.8974C43.4194 29.8813 43.4119 29.8648 43.4036 29.8483C43.3756 29.7926 43.3468 29.7361 43.3176 29.6822L43.2781 29.6122L43.2224 29.5108L43.179 29.4359C43.1608 29.4045 43.1427 29.373 43.1241 29.3416C43.1095 29.3162 43.0945 29.2907 43.0795 29.2668C43.059 29.2327 43.0401 29.1994 43.0176 29.1657L42.9607 29.0744C42.9339 29.0325 42.907 28.9902 42.8794 28.9487C42.862 28.9225 42.8447 28.8966 42.8269 28.8708C42.8091 28.845 42.7898 28.8154 42.7708 28.7881C42.7519 28.7608 42.7314 28.7335 42.714 28.7065C42.6966 28.6796 42.6777 28.6553 42.6591 28.6317C42.6406 28.6081 42.6196 28.5767 42.5995 28.5493L42.5439 28.4745C42.5044 28.4247 42.4681 28.3749 42.4294 28.3248L42.3753 28.2563C42.3524 28.2275 42.3287 28.199 42.3054 28.1706L42.2533 28.1077C42.2292 28.0789 42.2048 28.0505 42.1803 28.0217L42.129 27.9625L42.0524 27.8757L42.007 27.8256C41.9127 27.7219 41.8159 27.6197 41.7169 27.5202L41.6734 27.4764L41.5826 27.3877L41.538 27.345C41.5065 27.3147 41.4749 27.2848 41.4429 27.2552L41.4101 27.2253C41.2984 27.1224 41.1836 27.0221 41.0667 26.9259L41.0347 26.8993C40.9987 26.8694 40.9624 26.8398 40.9258 26.8106L40.8895 26.7814C40.85 26.7515 40.8141 26.7219 40.7758 26.6923L40.7564 26.6777C40.6273 26.5789 40.4951 26.4828 40.3617 26.3903L40.3431 26.3772C40.3009 26.3484 40.2587 26.32 40.216 26.2919L40.188 26.2736C40.1446 26.2447 40.1008 26.2167 40.0569 26.1886L40.0494 26.1841C39.9042 26.0921 39.7561 26.0039 39.6053 25.9195L39.5994 25.9158C39.5517 25.8892 39.5039 25.8634 39.4561 25.8376L39.4352 25.8263C39.181 25.6904 38.9199 25.5656 38.652 25.4521L38.6354 25.445C38.5648 25.415 38.4937 25.3862 38.4219 25.3578H39.8347C40.0648 25.3578 40.2515 25.1067 40.2515 24.7964C40.2515 24.4862 40.0648 24.2351 39.8347 24.2351H39.4139C39.4399 24.1722 39.4688 24.1011 39.4999 24.021C39.8979 23.786 40.5981 23.2852 41.2929 22.3653L41.2984 22.3582C41.3511 22.2894 41.4028 22.2181 41.4536 22.1445L41.4638 22.1299C41.5144 22.0577 41.5649 21.9832 41.6146 21.9054L41.628 21.8848C41.6517 21.8474 41.6754 21.81 41.6991 21.7725C41.6991 21.7725 41.6991 21.7695 41.7019 21.7677C41.7263 21.7302 41.7504 21.6891 41.7745 21.649L41.7899 21.6232C41.8104 21.5888 41.8313 21.5536 41.8515 21.5181C41.8554 21.5117 41.8594 21.5053 41.8629 21.4986C41.8862 21.4582 41.9095 21.417 41.9324 21.3755L41.9482 21.3466C41.9671 21.3122 41.9857 21.2774 42.0042 21.2422C42.0098 21.2325 42.0153 21.2224 42.0204 21.2123C42.0425 21.17 42.0646 21.1273 42.0867 21.0839L42.1021 21.0536C42.1195 21.0184 42.1373 20.9825 42.1546 20.9466L42.1736 20.9092C42.1949 20.865 42.2158 20.8201 42.2367 20.7748L42.2498 20.746C42.2671 20.7086 42.2841 20.6711 42.3011 20.6337L42.3212 20.5888C42.341 20.5435 42.3607 20.4979 42.3796 20.4518C42.3832 20.4436 42.3867 20.435 42.3899 20.4268C42.4077 20.3845 42.425 20.3414 42.4424 20.298L42.4621 20.2486C42.4783 20.2074 42.4945 20.1659 42.5103 20.1244L42.5221 20.0929C42.5407 20.0435 42.5589 19.993 42.577 19.9432L42.596 19.8901C42.6102 19.8504 42.624 19.81 42.6378 19.7696C42.6429 19.7546 42.6481 19.7396 42.6528 19.7247C42.6702 19.673 42.6875 19.6203 42.7045 19.5675C42.71 19.5492 42.716 19.5301 42.7215 19.5128L42.761 19.3897C42.7661 19.3718 42.7716 19.3523 42.7768 19.3362C42.7929 19.2819 42.8091 19.2266 42.8245 19.1708C42.8297 19.1532 42.8344 19.1352 42.8391 19.1173C42.851 19.0742 42.8628 19.0312 42.8743 18.9874C42.8794 18.9676 42.8845 18.9477 42.8901 18.9279C42.9047 18.8703 42.9193 18.8123 42.9335 18.7535L42.9453 18.7045C42.9564 18.6577 42.9674 18.6105 42.9781 18.563L42.9923 18.4994C43.0057 18.4384 43.0191 18.3774 43.0318 18.3153C43.0345 18.3033 43.0369 18.2909 43.0393 18.2778C43.0503 18.2243 43.061 18.1701 43.0712 18.1158C43.0756 18.0937 43.0795 18.0716 43.0839 18.0496C43.0941 17.9938 43.104 17.9373 43.1139 17.8815C43.1159 17.8695 43.1182 17.8579 43.1202 17.8463C43.1312 17.7805 43.142 17.7141 43.1526 17.6472C43.1561 17.6248 43.1597 17.6023 43.1628 17.5795C43.1711 17.5252 43.179 17.4706 43.1869 17.4152L43.194 17.3643C43.2035 17.2955 43.2126 17.2262 43.2212 17.1559C43.224 17.1338 43.2264 17.1117 43.2291 17.0892C43.236 17.0334 43.2423 16.9772 43.2481 16.9208C43.2505 16.9006 43.2528 16.8808 43.2548 16.8606C43.2624 16.7882 43.2695 16.7153 43.2761 16.6417C43.2761 16.6211 43.2797 16.6005 43.2813 16.5795C43.2864 16.5204 43.2915 16.4609 43.2959 16.401C43.2959 16.3789 43.2994 16.3569 43.301 16.3348C43.3065 16.2584 43.3116 16.1816 43.3164 16.1042C43.3164 16.0867 43.3164 16.0668 43.3191 16.0511C43.3227 15.9867 43.3263 15.922 43.329 15.8569C43.329 15.8333 43.329 15.8097 43.3322 15.7861C43.3353 15.7057 43.3385 15.6248 43.3409 15.5429C43.3409 15.5316 43.3409 15.52 43.3409 15.5084C43.343 15.4356 43.3445 15.362 43.3456 15.2876C43.3456 15.2633 43.3456 15.239 43.3456 15.2147C43.3456 15.1348 43.3456 15.0545 43.3456 14.9737V14.9549C43.3456 14.8689 43.3456 14.7817 43.3456 14.693V14.6181C43.3456 14.5433 43.3424 14.4647 43.3405 14.3868V14.3445C43.3377 14.2547 43.3341 14.1638 43.3306 14.0725C43.3306 14.0489 43.3282 14.0249 43.3274 14.0014C43.324 13.9245 43.3201 13.8472 43.3156 13.7693C43.3156 13.7502 43.3156 13.7319 43.3124 13.7113C43.3069 13.6178 43.3009 13.5235 43.2943 13.4284L43.2895 13.3622C43.2836 13.2828 43.2777 13.2031 43.271 13.1226C43.271 13.0994 43.2674 13.0762 43.2655 13.053C43.2572 12.9557 43.2481 12.8573 43.2386 12.7585C43.2386 12.7398 43.2347 12.7211 43.2331 12.702C43.2248 12.6178 43.2157 12.5328 43.2066 12.4471C43.2039 12.4213 43.2011 12.3959 43.198 12.37C43.1869 12.2682 43.1751 12.1661 43.1624 12.0624C43.1624 12.0497 43.1589 12.037 43.1573 12.025C43.146 11.9322 43.134 11.8389 43.1214 11.7451C43.1174 11.7174 43.1139 11.6897 43.1099 11.662C43.0952 11.5557 43.0801 11.4485 43.0645 11.3405C41.4855 0.684277 30.296 2.41366 30.296 2.41366L30.6544 4.70328L23.8872 11.4808L24.1829 14.0979L26.7464 15.5949C26.8607 15.3195 27.0074 15.0573 27.1838 14.8131C28.8378 13.0044 32.0467 11.5845 32.9653 11.29C33.1492 11.2312 33.2538 11.2016 33.2538 11.2016C28.8599 16.593 29.3596 22.7695 29.5554 24.2418C29.3517 24.2792 29.1942 24.5124 29.1942 24.7968C29.1942 25.1067 29.3809 25.3582 29.6111 25.3582H31.0239C28.6742 26.2906 26.8091 28.0665 25.8357 30.2982C25.8345 30.3012 25.8332 30.3042 25.8317 30.3072C25.7599 30.4728 25.6931 30.6409 25.6312 30.8113C25.6313 30.813 25.6313 30.8148 25.6312 30.8165C25.6146 30.8629 25.5984 30.9093 25.5827 30.9561C25.5767 30.9729 25.5708 30.9898 25.5653 31.007C25.5511 31.0489 25.5379 31.0912 25.5258 31.1339C25.5187 31.1556 25.512 31.1777 25.5053 31.1994C25.4927 31.2394 25.4804 31.2798 25.4686 31.3202L25.4473 31.3951C25.4362 31.4325 25.4252 31.4726 25.4149 31.5115C25.4074 31.5392 25.4003 31.5665 25.3932 31.5942C25.3837 31.6316 25.3738 31.669 25.3648 31.7065C25.3557 31.7439 25.347 31.7813 25.3383 31.821C25.3296 31.8606 25.3186 31.9071 25.3091 31.9505H24.7458C24.6375 31.9482 24.5298 31.9665 24.429 32.0042C24.3282 32.0419 24.2364 32.0984 24.159 32.1702C24.0815 32.242 24.02 32.3278 23.9779 32.4225C23.9359 32.5172 23.9143 32.6189 23.9143 32.7216C23.9143 32.8243 23.9359 32.926 23.9779 33.0207C24.02 33.1154 24.0815 33.2011 24.159 33.273C24.2364 33.3448 24.3282 33.4012 24.429 33.439C24.5298 33.4767 24.6375 33.495 24.7458 33.4927H44.7106C44.819 33.495 44.9267 33.4767 45.0274 33.439C45.1282 33.4012 45.22 33.3448 45.2975 33.273C45.3749 33.2011 45.4365 33.1154 45.4785 33.0207C45.5205 32.926 45.5421 32.8243 45.5421 32.7216C45.5421 32.6189 45.5205 32.5172 45.4785 32.4225C45.4365 32.3278 45.3749 32.242 45.2975 32.1702C45.22 32.0984 45.1282 32.0419 45.0274 32.0042C44.9267 31.9665 44.819 31.9482 44.7106 31.9505L44.7035 31.9437Z" fill="#595653"/>
<path d="M68.0912 31.9437H67.5283C67.5283 31.9377 67.5256 31.9318 67.5244 31.9261L67.509 31.8573C67.4991 31.812 67.4884 31.7671 67.4774 31.7226C67.4727 31.7016 67.4675 31.6806 67.4624 31.6597C67.4478 31.6009 67.4324 31.5422 67.4166 31.4834L67.4119 31.4666C67.3945 31.4029 67.3763 31.3396 67.3574 31.2765L67.3384 31.2155C67.3254 31.172 67.3116 31.129 67.299 31.086C67.2915 31.0624 67.2836 31.0392 67.2761 31.016C67.2623 30.9744 67.248 30.9329 67.2334 30.8917C67.2259 30.87 67.218 30.8479 67.2105 30.8266C67.1921 30.775 67.1732 30.7237 67.1537 30.6728C67.1494 30.6619 67.1458 30.6515 67.1415 30.6406C67.1186 30.5807 67.0945 30.5212 67.07 30.4617C67.0613 30.44 67.0522 30.4187 67.0432 30.3974C67.0266 30.3599 67.01 30.3188 66.993 30.2798L66.9611 30.2076C66.9445 30.1702 66.9275 30.1328 66.9101 30.0953C66.8995 30.0721 66.8884 30.0486 66.8774 30.0254C66.8572 29.9823 66.8379 29.9397 66.8154 29.8974C66.8071 29.8813 66.7996 29.8648 66.7913 29.8483C66.7633 29.7926 66.7345 29.7361 66.7053 29.6822L66.6658 29.6122L66.6101 29.5108L66.5667 29.4359C66.5485 29.4045 66.5304 29.373 66.5118 29.3416C66.4972 29.3162 66.4822 29.2907 66.4672 29.2668C66.4467 29.2327 66.4278 29.1994 66.4053 29.1657L66.3484 29.0744C66.3216 29.0325 66.2947 28.9902 66.2671 28.9487C66.2497 28.9225 66.2324 28.8966 66.2146 28.8708C66.1968 28.845 66.1775 28.8154 66.1585 28.7881C66.1396 28.7608 66.1191 28.7335 66.1017 28.7065C66.0843 28.6796 66.0654 28.6553 66.0468 28.6317C66.0283 28.6081 66.0073 28.5767 65.9872 28.5493L65.9316 28.4745C65.8921 28.4247 65.8558 28.3749 65.8171 28.3248L65.763 28.2563C65.7401 28.2275 65.7164 28.199 65.6931 28.1706L65.641 28.1077C65.6169 28.0789 65.5925 28.0505 65.568 28.0217L65.5167 27.9625L65.4401 27.8757L65.3947 27.8256C65.3003 27.7219 65.2036 27.6197 65.1046 27.5202L65.0611 27.4764L64.9703 27.3877L64.9257 27.345C64.8942 27.3147 64.8626 27.2848 64.8306 27.2552L64.7978 27.2253C64.6861 27.1224 64.5712 27.0221 64.4544 26.9259L64.4224 26.8993C64.3864 26.8694 64.3501 26.8398 64.3135 26.8106L64.2772 26.7814C64.2377 26.7515 64.2018 26.7219 64.1635 26.6923L64.1441 26.6777C64.015 26.5789 63.8828 26.4828 63.7494 26.3903L63.7308 26.3772C63.6886 26.3484 63.6463 26.32 63.6037 26.2919L63.5757 26.2736C63.5323 26.2447 63.4884 26.2167 63.4446 26.1886L63.4371 26.1841C63.2919 26.0921 63.1438 26.0039 62.993 25.9195L62.9871 25.9158C62.9394 25.8892 62.8916 25.8634 62.8438 25.8376L62.8229 25.8263C62.5687 25.6904 62.3076 25.5656 62.0397 25.4521L62.0231 25.445C61.9525 25.415 61.8814 25.3862 61.8096 25.3578H63.2224C63.4525 25.3578 63.6392 25.1067 63.6392 24.7964C63.6392 24.4862 63.4525 24.2351 63.2224 24.2351H62.8016C62.8276 24.1722 62.8565 24.1011 62.8876 24.021C63.2855 23.786 63.9858 23.2852 64.6806 22.3653L64.6861 22.3582C64.7388 22.2894 64.7905 22.2181 64.8413 22.1445L64.8515 22.1299C64.902 22.0577 64.9526 21.9832 65.0023 21.9054L65.0157 21.8848C65.0394 21.8474 65.0631 21.81 65.0868 21.7725C65.0868 21.7725 65.0868 21.7695 65.0896 21.7677C65.114 21.7302 65.1381 21.6891 65.1622 21.649L65.1776 21.6232C65.1981 21.5888 65.219 21.5536 65.2392 21.5181C65.2431 21.5117 65.2471 21.5053 65.2506 21.4986C65.2739 21.4582 65.2972 21.417 65.3201 21.3755L65.3359 21.3466C65.3548 21.3122 65.3734 21.2774 65.3919 21.2422C65.3975 21.2325 65.403 21.2224 65.4081 21.2123C65.4302 21.17 65.4523 21.1273 65.4744 21.0839L65.4898 21.0536C65.5072 21.0184 65.525 20.9825 65.5423 20.9466L65.5613 20.9092C65.5826 20.865 65.6035 20.8201 65.6244 20.7748L65.6375 20.746C65.6548 20.7086 65.6718 20.6711 65.6888 20.6337L65.7089 20.5888C65.7287 20.5435 65.7484 20.4979 65.7673 20.4518C65.7709 20.4436 65.7744 20.435 65.7776 20.4268C65.7954 20.3845 65.8127 20.3414 65.8301 20.298L65.8498 20.2486C65.866 20.2074 65.8822 20.1659 65.898 20.1244L65.9098 20.0929C65.9284 20.0435 65.9466 19.993 65.9647 19.9432L65.9837 19.8901C65.9979 19.8504 66.0117 19.81 66.0255 19.7696C66.0306 19.7546 66.0358 19.7396 66.0405 19.7247C66.0579 19.673 66.0752 19.6203 66.0922 19.5675C66.0977 19.5492 66.1037 19.5301 66.1092 19.5128L66.1487 19.3897C66.1538 19.3718 66.1593 19.3523 66.1645 19.3362C66.1806 19.2819 66.1968 19.2266 66.2122 19.1708C66.2174 19.1532 66.2221 19.1352 66.2268 19.1173C66.2387 19.0742 66.2505 19.0312 66.262 18.9874C66.2671 18.9676 66.2722 18.9477 66.2777 18.9279C66.2924 18.8703 66.307 18.8123 66.3212 18.7535L66.333 18.7045C66.3441 18.6577 66.3551 18.6105 66.3658 18.563L66.38 18.4994C66.3934 18.4384 66.4068 18.3774 66.4195 18.3153C66.4222 18.3033 66.4246 18.2909 66.427 18.2778C66.438 18.2243 66.4487 18.1701 66.4589 18.1158C66.4633 18.0937 66.4672 18.0716 66.4716 18.0496C66.4818 17.9938 66.4917 17.9373 66.5016 17.8815C66.5035 17.8695 66.5059 17.8579 66.5079 17.8463C66.5189 17.7805 66.5297 17.7141 66.5403 17.6472C66.5438 17.6248 66.5474 17.6023 66.5505 17.5795C66.5588 17.5252 66.5667 17.4706 66.5746 17.4152L66.5817 17.3643C66.5912 17.2955 66.6003 17.2262 66.6089 17.1559C66.6117 17.1338 66.6141 17.1117 66.6168 17.0892C66.6237 17.0334 66.63 16.9772 66.6358 16.9208C66.6382 16.9006 66.6405 16.8808 66.6425 16.8606C66.6501 16.7882 66.6572 16.7153 66.6638 16.6417C66.6638 16.6211 66.6674 16.6005 66.6689 16.5795C66.6741 16.5204 66.6792 16.4609 66.6836 16.401C66.6836 16.3789 66.6871 16.3569 66.6887 16.3348C66.6942 16.2584 66.6993 16.1816 66.7041 16.1042C66.7041 16.0867 66.7041 16.0668 66.7068 16.0511C66.7104 15.9867 66.7139 15.922 66.7167 15.8569C66.7167 15.8333 66.7167 15.8097 66.7199 15.7861C66.723 15.7057 66.7262 15.6248 66.7286 15.5429C66.7286 15.5316 66.7286 15.52 66.7286 15.5084C66.7307 15.4356 66.7322 15.362 66.7333 15.2876C66.7333 15.2633 66.7333 15.239 66.7333 15.2147C66.7333 15.1348 66.7333 15.0545 66.7333 14.9737V14.9549C66.7333 14.8689 66.7333 14.7817 66.7333 14.693V14.6181C66.7333 14.5433 66.7301 14.4647 66.7282 14.3868V14.3445C66.7254 14.2547 66.7218 14.1638 66.7183 14.0725C66.7183 14.0489 66.7159 14.0249 66.7151 14.0014C66.7117 13.9245 66.7078 13.8472 66.7033 13.7693C66.7033 13.7502 66.7033 13.7319 66.7001 13.7113C66.6946 13.6178 66.6886 13.5235 66.682 13.4284L66.6772 13.3622C66.6713 13.2828 66.6654 13.2031 66.6587 13.1226C66.6587 13.0994 66.6551 13.0762 66.6532 13.053C66.6449 12.9557 66.6358 12.8573 66.6263 12.7585C66.6263 12.7398 66.6224 12.7211 66.6208 12.702C66.6125 12.6178 66.6034 12.5328 66.5943 12.4471C66.5916 12.4213 66.5888 12.3959 66.5857 12.37C66.5746 12.2682 66.5628 12.1661 66.5501 12.0624C66.5501 12.0497 66.5466 12.037 66.545 12.025C66.5337 11.9322 66.5217 11.8389 66.5091 11.7451C66.5051 11.7174 66.5016 11.6897 66.4976 11.662C66.4829 11.5557 66.4678 11.4485 66.4522 11.3405C64.8732 0.684277 53.6837 2.41366 53.6837 2.41366L54.0421 4.70328L47.2749 11.4808L47.5706 14.0979L50.1341 15.5949C50.2484 15.3195 50.3951 15.0573 50.5715 14.8131C52.2255 13.0044 55.4344 11.5845 56.353 11.29C56.5369 11.2312 56.6415 11.2016 56.6415 11.2016C52.2476 16.593 52.7473 22.7695 52.9431 24.2418C52.7394 24.2792 52.5819 24.5124 52.5819 24.7968C52.5819 25.1067 52.7686 25.3582 52.9988 25.3582H54.4116C52.0619 26.2906 50.1968 28.0665 49.2234 30.2982C49.2222 30.3012 49.2209 30.3042 49.2194 30.3072C49.1476 30.4728 49.0808 30.6409 49.0189 30.8113C49.019 30.813 49.019 30.8148 49.0189 30.8165C49.0023 30.8629 48.9861 30.9093 48.9704 30.9561C48.9644 30.9729 48.9585 30.9898 48.953 31.007C48.9388 31.0489 48.9256 31.0912 48.9135 31.1339C48.9064 31.1556 48.8997 31.1777 48.893 31.1994C48.8803 31.2394 48.8681 31.2798 48.8563 31.3202L48.835 31.3951C48.8239 31.4325 48.8128 31.4726 48.8026 31.5115C48.7951 31.5392 48.788 31.5665 48.7809 31.5942C48.7714 31.6316 48.7615 31.669 48.7525 31.7065C48.7434 31.7439 48.7347 31.7813 48.726 31.821C48.7173 31.8606 48.7063 31.9071 48.6968 31.9505H48.1335C48.0252 31.9482 47.9175 31.9665 47.8167 32.0042C47.7159 32.0419 47.6241 32.0984 47.5466 32.1702C47.4692 32.242 47.4077 32.3278 47.3656 32.4225C47.3236 32.5172 47.302 32.6189 47.302 32.7216C47.302 32.8243 47.3236 32.926 47.3656 33.0207C47.4077 33.1154 47.4692 33.2011 47.5466 33.273C47.6241 33.3448 47.7159 33.4012 47.8167 33.439C47.9175 33.4767 48.0252 33.495 48.1335 33.4927H68.0983C68.2067 33.495 68.3144 33.4767 68.4151 33.439C68.5159 33.4012 68.6077 33.3448 68.6852 33.273C68.7626 33.2011 68.8242 33.1154 68.8662 33.0207C68.9082 32.926 68.9298 32.8243 68.9298 32.7216C68.9298 32.6189 68.9082 32.5172 68.8662 32.4225C68.8242 32.3278 68.7626 32.242 68.6852 32.1702C68.6077 32.0984 68.5159 32.0419 68.4151 32.0042C68.3144 31.9665 68.2067 31.9482 68.0983 31.9505L68.0912 31.9437Z" fill="#595653"/>
<path d="M91.4784 31.9437H90.9155C90.9155 31.9377 90.9128 31.9318 90.9116 31.9261L90.8962 31.8573C90.8863 31.812 90.8757 31.7671 90.8646 31.7226C90.8599 31.7016 90.8547 31.6806 90.8496 31.6597C90.835 31.6009 90.8196 31.5422 90.8038 31.4834L90.7991 31.4666C90.7817 31.4029 90.7635 31.3396 90.7446 31.2765L90.7256 31.2155C90.7126 31.172 90.6988 31.129 90.6862 31.086C90.6787 31.0624 90.6708 31.0392 90.6633 31.016C90.6495 30.9744 90.6352 30.9329 90.6206 30.8917C90.6131 30.87 90.6052 30.8479 90.5977 30.8266C90.5793 30.775 90.5604 30.7237 90.5409 30.6728C90.5366 30.6619 90.533 30.6515 90.5287 30.6406C90.5058 30.5807 90.4817 30.5212 90.4572 30.4617C90.4485 30.44 90.4395 30.4187 90.4304 30.3974C90.4138 30.3599 90.3972 30.3188 90.3802 30.2798L90.3483 30.2076C90.3317 30.1702 90.3147 30.1328 90.2973 30.0953C90.2867 30.0721 90.2756 30.0486 90.2646 30.0254C90.2444 29.9823 90.2251 29.9397 90.2026 29.8974C90.1943 29.8813 90.1868 29.8648 90.1785 29.8483C90.1505 29.7926 90.1217 29.7361 90.0925 29.6822L90.053 29.6122L89.9973 29.5108L89.9539 29.4359C89.9358 29.4045 89.9176 29.373 89.899 29.3416C89.8844 29.3162 89.8694 29.2907 89.8544 29.2668C89.8339 29.2327 89.815 29.1994 89.7925 29.1657L89.7356 29.0744C89.7088 29.0325 89.6819 28.9902 89.6543 28.9487C89.6369 28.9225 89.6196 28.8966 89.6018 28.8708C89.584 28.845 89.5647 28.8154 89.5457 28.7881C89.5268 28.7608 89.5063 28.7335 89.4889 28.7065C89.4715 28.6796 89.4526 28.6553 89.434 28.6317C89.4155 28.6081 89.3946 28.5767 89.3744 28.5493L89.3188 28.4745C89.2793 28.4247 89.243 28.3749 89.2043 28.3248L89.1502 28.2563C89.1273 28.2275 89.1036 28.199 89.0803 28.1706L89.0282 28.1077C89.0041 28.0789 88.9797 28.0505 88.9552 28.0217L88.9039 27.9625L88.8273 27.8757L88.7819 27.8256C88.6876 27.7219 88.5908 27.6197 88.4918 27.5202L88.4483 27.4764L88.3575 27.3877L88.3129 27.345C88.2814 27.3147 88.2498 27.2848 88.2178 27.2552L88.185 27.2253C88.0733 27.1224 87.9585 27.0221 87.8416 26.9259L87.8096 26.8993C87.7736 26.8694 87.7373 26.8398 87.7007 26.8106L87.6644 26.7814C87.6249 26.7515 87.589 26.7219 87.5507 26.6923L87.5313 26.6777C87.4023 26.5789 87.27 26.4828 87.1366 26.3903L87.118 26.3772C87.0758 26.3484 87.0336 26.32 86.9909 26.2919L86.9629 26.2736C86.9195 26.2447 86.8757 26.2167 86.8318 26.1886L86.8243 26.1841C86.6791 26.0921 86.531 26.0039 86.3802 25.9195L86.3743 25.9158C86.3266 25.8892 86.2788 25.8634 86.231 25.8376L86.2101 25.8263C85.9559 25.6904 85.6948 25.5656 85.4269 25.4521L85.4103 25.445C85.3397 25.415 85.2686 25.3862 85.1968 25.3578H86.6096C86.8397 25.3578 87.0265 25.1067 87.0265 24.7964C87.0265 24.4862 86.8397 24.2351 86.6096 24.2351H86.1888C86.2148 24.1722 86.2437 24.1011 86.2748 24.021C86.6728 23.786 87.373 23.2852 88.0678 22.3653L88.0733 22.3582C88.126 22.2894 88.1777 22.2181 88.2285 22.1445L88.2387 22.1299C88.2893 22.0577 88.3398 21.9832 88.3895 21.9054L88.4029 21.8848C88.4266 21.8474 88.4503 21.81 88.474 21.7725C88.474 21.7725 88.474 21.7695 88.4768 21.7677C88.5012 21.7302 88.5253 21.6891 88.5494 21.649L88.5648 21.6232C88.5853 21.5888 88.6062 21.5536 88.6264 21.5181C88.6303 21.5117 88.6343 21.5053 88.6378 21.4986C88.6611 21.4582 88.6844 21.417 88.7073 21.3755L88.7231 21.3466C88.742 21.3122 88.7606 21.2774 88.7791 21.2422C88.7847 21.2325 88.7902 21.2224 88.7953 21.2123C88.8174 21.17 88.8395 21.1273 88.8616 21.0839L88.877 21.0536C88.8944 21.0184 88.9122 20.9825 88.9295 20.9466L88.9485 20.9092C88.9698 20.865 88.9907 20.8201 89.0116 20.7748L89.0247 20.746C89.042 20.7086 89.059 20.6711 89.076 20.6337L89.0961 20.5888C89.1159 20.5435 89.1356 20.4979 89.1545 20.4518C89.1581 20.4436 89.1616 20.435 89.1648 20.4268C89.1826 20.3845 89.1999 20.3414 89.2173 20.298L89.237 20.2486C89.2532 20.2074 89.2694 20.1659 89.2852 20.1244L89.2971 20.0929C89.3156 20.0435 89.3338 19.993 89.3519 19.9432L89.3709 19.8901C89.3851 19.8504 89.3989 19.81 89.4127 19.7696C89.4178 19.7546 89.423 19.7396 89.4277 19.7247C89.4451 19.673 89.4625 19.6203 89.4794 19.5675C89.485 19.5492 89.4909 19.5301 89.4964 19.5128L89.5359 19.3897C89.541 19.3718 89.5465 19.3523 89.5517 19.3362C89.5678 19.2819 89.584 19.2266 89.5994 19.1708C89.6046 19.1532 89.6093 19.1352 89.614 19.1173C89.6259 19.0742 89.6377 19.0312 89.6492 18.9874C89.6543 18.9676 89.6594 18.9477 89.665 18.9279C89.6796 18.8703 89.6942 18.8123 89.7084 18.7535L89.7202 18.7045C89.7313 18.6577 89.7423 18.6105 89.753 18.563L89.7672 18.4994C89.7806 18.4384 89.794 18.3774 89.8067 18.3153C89.8094 18.3033 89.8118 18.2909 89.8142 18.2778C89.8252 18.2243 89.8359 18.1701 89.8461 18.1158C89.8505 18.0937 89.8544 18.0716 89.8588 18.0496C89.869 17.9938 89.8789 17.9373 89.8888 17.8815C89.8908 17.8695 89.8931 17.8579 89.8951 17.8463C89.9061 17.7805 89.9169 17.7141 89.9275 17.6472C89.931 17.6248 89.9346 17.6023 89.9377 17.5795C89.946 17.5252 89.9539 17.4706 89.9618 17.4152L89.9689 17.3643C89.9784 17.2955 89.9875 17.2262 89.9962 17.1559C89.9989 17.1338 90.0013 17.1117 90.004 17.0892C90.0109 17.0334 90.0172 16.9772 90.023 16.9208C90.0254 16.9006 90.0277 16.8808 90.0297 16.8606C90.0373 16.7882 90.0444 16.7153 90.051 16.6417C90.051 16.6211 90.0546 16.6005 90.0562 16.5795C90.0613 16.5204 90.0664 16.4609 90.0708 16.401C90.0708 16.3789 90.0743 16.3569 90.0759 16.3348C90.0814 16.2584 90.0865 16.1816 90.0913 16.1042C90.0913 16.0867 90.0913 16.0668 90.094 16.0511C90.0976 15.9867 90.1012 15.922 90.1039 15.8569C90.1039 15.8333 90.1039 15.8097 90.1071 15.7861C90.1102 15.7057 90.1134 15.6248 90.1158 15.5429C90.1158 15.5316 90.1158 15.52 90.1158 15.5084C90.1179 15.4356 90.1194 15.362 90.1205 15.2876C90.1205 15.2633 90.1205 15.239 90.1205 15.2147C90.1205 15.1348 90.1205 15.0545 90.1205 14.9737V14.9549C90.1205 14.8689 90.1205 14.7817 90.1205 14.693V14.6181C90.1205 14.5433 90.1173 14.4647 90.1154 14.3868V14.3445C90.1126 14.2547 90.1091 14.1638 90.1055 14.0725C90.1055 14.0489 90.1031 14.0249 90.1023 14.0014C90.0989 13.9245 90.095 13.8472 90.0905 13.7693C90.0905 13.7502 90.0905 13.7319 90.0873 13.7113C90.0818 13.6178 90.0758 13.5235 90.0692 13.4284L90.0644 13.3622C90.0585 13.2828 90.0526 13.2031 90.0459 13.1226C90.0459 13.0994 90.0423 13.0762 90.0404 13.053C90.0321 12.9557 90.023 12.8573 90.0135 12.7585C90.0135 12.7398 90.0096 12.7211 90.008 12.702C89.9997 12.6178 89.9906 12.5328 89.9815 12.4471C89.9788 12.4213 89.976 12.3959 89.9729 12.37C89.9618 12.2682 89.95 12.1661 89.9373 12.0624C89.9373 12.0497 89.9338 12.037 89.9322 12.025C89.9209 11.9322 89.9089 11.8389 89.8963 11.7451C89.8923 11.7174 89.8888 11.6897 89.8848 11.662C89.8701 11.5557 89.855 11.4485 89.8394 11.3405C88.2604 0.684277 77.0709 2.41366 77.0709 2.41366L77.4293 4.70328L70.6621 11.4808L70.9578 14.0979L73.5213 15.5949C73.6356 15.3195 73.7823 15.0573 73.9587 14.8131C75.6127 13.0044 78.8216 11.5845 79.7402 11.29C79.9241 11.2312 80.0287 11.2016 80.0287 11.2016C75.6348 16.593 76.1345 22.7695 76.3303 24.2418C76.1266 24.2792 75.9691 24.5124 75.9691 24.7968C75.9691 25.1067 76.1558 25.3582 76.386 25.3582H77.7988C75.4491 26.2906 73.584 28.0665 72.6106 30.2982C72.6094 30.3012 72.6081 30.3042 72.6066 30.3072C72.5348 30.4728 72.468 30.6409 72.4061 30.8113C72.4062 30.813 72.4062 30.8148 72.4061 30.8165C72.3895 30.8629 72.3734 30.9093 72.3576 30.9561C72.3516 30.9729 72.3457 30.9898 72.3402 31.007C72.326 31.0489 72.3128 31.0912 72.3007 31.1339C72.2936 31.1556 72.2869 31.1777 72.2802 31.1994C72.2676 31.2394 72.2553 31.2798 72.2435 31.3202L72.2222 31.3951C72.2111 31.4325 72.2001 31.4726 72.1898 31.5115C72.1823 31.5392 72.1752 31.5665 72.1681 31.5942C72.1586 31.6316 72.1487 31.669 72.1397 31.7065C72.1306 31.7439 72.1219 31.7813 72.1132 31.821C72.1045 31.8606 72.0935 31.9071 72.084 31.9505H71.5207C71.4124 31.9482 71.3047 31.9665 71.2039 32.0042C71.1031 32.0419 71.0113 32.0984 70.9339 32.1702C70.8564 32.242 70.7949 32.3278 70.7528 32.4225C70.7108 32.5172 70.6892 32.6189 70.6892 32.7216C70.6892 32.8243 70.7108 32.926 70.7528 33.0207C70.7949 33.1154 70.8564 33.2011 70.9339 33.273C71.0113 33.3448 71.1031 33.4012 71.2039 33.439C71.3047 33.4767 71.4124 33.495 71.5207 33.4927H91.4855C91.5939 33.495 91.7016 33.4767 91.8023 33.439C91.9031 33.4012 91.9949 33.3448 92.0724 33.273C92.1498 33.2011 92.2114 33.1154 92.2534 33.0207C92.2954 32.926 92.317 32.8243 92.317 32.7216C92.317 32.6189 92.2954 32.5172 92.2534 32.4225C92.2114 32.3278 92.1498 32.242 92.0724 32.1702C91.9949 32.0984 91.9031 32.0419 91.8023 32.0042C91.7016 31.9665 91.5939 31.9482 91.4855 31.9505L91.4784 31.9437Z" fill="#595653"/>
<path d="M99.8345 15V3.34411H102.832V7.95652H103.664L107.228 3.34411H110.491L105.996 8.78908L110.658 15H107.161L103.664 10.0546H102.832V15H99.8345ZM112.323 15.2165C112.234 15.2165 112.107 15.2109 111.94 15.1998C111.785 15.1998 111.662 15.1887 111.574 15.1665V12.5356C111.607 12.5467 111.69 12.5523 111.823 12.5523C112.045 12.5523 112.234 12.5245 112.39 12.469C112.556 12.4024 112.695 12.2692 112.806 12.0694C112.917 11.8585 113.011 11.5532 113.089 11.1536C113.178 10.7539 113.239 10.2211 113.272 9.55504C113.305 8.87788 113.322 8.02867 113.322 7.00739V3.34411H122.147V15H119.133V5.79185H116.119V7.34042C116.119 8.72802 116.064 9.89361 115.953 10.8372C115.842 11.7697 115.675 12.5245 115.453 13.1018C115.243 13.679 114.982 14.123 114.671 14.4339C114.36 14.7336 114.005 14.9389 113.605 15.05C113.217 15.161 112.789 15.2165 112.323 15.2165ZM126.817 15.2165C126.695 15.2165 126.573 15.2109 126.451 15.1998C126.34 15.1998 126.24 15.1832 126.151 15.1499V12.6688C126.24 12.6799 126.329 12.691 126.418 12.7021C126.507 12.7132 126.612 12.7188 126.734 12.7188C127.056 12.7188 127.306 12.6966 127.483 12.6522C127.661 12.5967 127.8 12.5079 127.9 12.3858C128 12.2525 128.083 12.0749 128.149 11.8529L123.47 3.34411H126.518L129.615 9.25531L132.046 3.34411H134.977L131.08 12.1526C130.825 12.7299 130.569 13.2128 130.314 13.6013C130.07 13.9898 129.787 14.3062 129.465 14.5504C129.154 14.7835 128.782 14.95 128.349 15.05C127.927 15.161 127.417 15.2165 126.817 15.2165ZM136.308 15V3.34411H144.883V5.8085H139.305V7.54023H141.22C142.841 7.54023 144.034 7.87326 144.8 8.53931C145.577 9.19426 145.966 10.0768 145.966 11.1869C145.966 12.3858 145.577 13.3238 144.8 14.0009C144.034 14.667 142.841 15 141.22 15H136.308ZM139.305 12.5356H140.887C141.609 12.5356 142.119 12.4191 142.419 12.1859C142.719 11.9417 142.869 11.6087 142.869 11.1869C142.869 10.765 142.719 10.4376 142.419 10.2044C142.119 9.96022 141.609 9.83811 140.887 9.83811H139.305V12.5356ZM105.896 33V28.3543C105.607 28.543 105.224 28.7151 104.747 28.8705C104.28 29.0148 103.725 29.087 103.082 29.087C101.872 29.087 100.956 28.7872 100.334 28.1878C99.7235 27.5772 99.4183 26.6004 99.4183 25.2572V21.3441H102.415V24.7576C102.415 25.4126 102.554 25.8844 102.832 26.173C103.109 26.4505 103.498 26.5893 103.997 26.5893C104.452 26.5893 104.835 26.5393 105.146 26.4394C105.457 26.3284 105.707 26.2118 105.896 26.0897V21.3441H108.909V33H105.896ZM111.233 33V21.3441H119.726V23.642H114.231V25.9232H119.226V28.0879H114.231V30.7021H119.726V33H111.233ZM124.713 33V23.8085H121.133V21.3441H131.29V23.8085H127.71V33H124.713ZM132.796 33V21.3441H135.793V25.2072H137.208C138.829 25.2072 140.022 25.5569 140.788 26.2562C141.565 26.9556 141.954 27.9047 141.954 29.1036C141.954 30.3025 141.565 31.2516 140.788 31.951C140.022 32.6503 138.829 33 137.208 33H132.796ZM135.793 30.5356H136.875C137.574 30.5356 138.08 30.4024 138.39 30.136C138.701 29.8696 138.857 29.5254 138.857 29.1036C138.857 28.6818 138.701 28.3376 138.39 28.0712C138.08 27.8048 137.574 27.6716 136.875 27.6716H135.793V30.5356ZM142.786 33V21.3441H145.784V33H142.786ZM148.113 33V21.3441H152.859C153.947 21.3441 154.841 21.5051 155.54 21.827C156.239 22.1378 156.755 22.593 157.088 23.1924C157.433 23.7807 157.605 24.4912 157.605 25.3238C157.605 26.1452 157.433 26.8557 157.088 27.4551C156.755 28.0546 156.239 28.5153 155.54 28.8372C154.841 29.148 153.947 29.3034 152.859 29.3034H151.111V33H148.113ZM151.111 26.839H152.526C153.292 26.839 153.83 26.7114 154.141 26.4561C154.452 26.2007 154.607 25.8233 154.607 25.3238C154.607 24.8242 154.452 24.4468 154.141 24.1915C153.83 23.9362 153.292 23.8085 152.526 23.8085H151.111V26.839ZM159.268 33V21.3441H167.761V23.642H162.266V25.9232H167.261V28.0879H162.266V30.7021H167.761V33H159.268ZM168.922 33L172.719 26.9223L169.089 21.3441H172.402L174.684 24.8742L176.998 21.3441H180.245L176.632 26.889L180.412 33H177.065L174.634 28.9204L172.203 33H168.922ZM186.152 33V21.3441H189.149V25.9565H189.982L193.545 21.3441H196.809L192.313 26.7891L196.975 33H193.478L189.982 28.0546H189.149V33H186.152ZM203.479 33.2165C202.724 33.2165 202.002 33.1055 201.314 32.8834C200.626 32.6614 200.021 32.3117 199.499 31.8344C198.978 31.3571 198.567 30.741 198.267 29.9861C197.967 29.2202 197.817 28.3099 197.817 27.2553V26.9223C197.817 25.901 197.967 25.024 198.267 24.2914C198.567 23.5587 198.978 22.9593 199.499 22.4931C200.021 22.0268 200.626 21.6827 201.314 21.4607C202.002 21.2387 202.724 21.1276 203.479 21.1276C204.256 21.1276 204.983 21.2387 205.66 21.4607C206.337 21.6827 206.937 22.0268 207.459 22.4931C207.98 22.9593 208.391 23.5587 208.691 24.2914C208.99 25.024 209.14 25.901 209.14 26.9223V27.2553C209.14 28.3099 208.99 29.2202 208.691 29.9861C208.391 30.741 207.98 31.3571 207.459 31.8344C206.937 32.3117 206.337 32.6614 205.66 32.8834C204.983 33.1055 204.256 33.2165 203.479 33.2165ZM203.462 30.7188C203.917 30.7188 204.339 30.6189 204.728 30.4191C205.116 30.2081 205.427 29.8585 205.66 29.37C205.904 28.8705 206.027 28.1656 206.027 27.2553V26.9223C206.027 26.0564 205.904 25.3848 205.66 24.9075C205.427 24.4301 205.116 24.0971 204.728 23.9084C204.339 23.7197 203.917 23.6253 203.462 23.6253C203.029 23.6253 202.619 23.7197 202.23 23.9084C201.842 24.0971 201.525 24.4301 201.281 24.9075C201.037 25.3848 200.915 26.0564 200.915 26.9223V27.2553C200.915 28.1656 201.037 28.8705 201.281 29.37C201.525 29.8585 201.842 30.2081 202.23 30.4191C202.619 30.6189 203.029 30.7188 203.462 30.7188ZM211.047 33V21.3441H214.045V25.7734H218.374V21.3441H221.371V33H218.374V28.2377H214.045V33H211.047ZM223.698 33V21.3441H232.191V23.642H226.696V25.9232H231.691V28.0879H226.696V30.7021H232.191V33H223.698ZM234.106 33V21.3441H237.103V28.3376L241.682 21.3441H244.429V33H241.432V26.0065L236.853 33H234.106ZM239.267 20.6947C238.49 20.6947 237.852 20.5893 237.353 20.3783C236.864 20.1563 236.503 19.8344 236.27 19.4126C236.048 18.9907 235.937 18.4634 235.937 17.8307H238.368C238.368 18.2969 238.435 18.6133 238.568 18.7798C238.712 18.9352 238.945 19.0129 239.267 19.0129C239.589 19.0129 239.817 18.9352 239.95 18.7798C240.094 18.6133 240.167 18.2969 240.167 17.8307H242.598C242.598 18.4634 242.481 18.9907 242.248 19.4126C242.026 19.8344 241.671 20.1563 241.182 20.3783C240.694 20.5893 240.056 20.6947 239.267 20.6947Z" fill="#595653"/>
</svg>
